<svg width="23" height="27" viewBox="0 0 23 27" fill="none" xmlns="http://www.w3.org/2000/svg">
<g clip-path="url(#clip0_52_853)">
<path d="M20.4728 9.2458V5.68105C20.4728 5.10904 20.0149 4.64321 19.4434 4.61772C15.4817 4.44097 12.7775 3.78146 11.3887 2.65142C10.627 3.11897 9.70166 3.51249 8.62825 3.82808C7.30824 4.21546 5.79242 4.46957 4.11031 4.58814C3.54561 4.62794 3.09754 5.09043 3.09754 5.65654V6.87232C3.09754 7.45369 3.56956 7.92058 4.14981 7.95652C5.8577 8.0623 7.25499 8.43289 8.28733 9.04904C8.7763 8.58539 9.43477 8.30096 10.1595 8.30096C11.6634 8.30096 12.8829 9.52048 12.8829 11.0264C12.8829 11.8874 12.4836 12.6531 11.8602 13.1518V14.683H19.8202C20.5527 14.683 21.2404 15.0434 21.6592 15.6434C22.0781 16.2454 22.1774 17.0168 21.9222 17.7065C20.9579 20.3111 17.9734 26.4009 11.0946 26.6951C10.9426 26.7009 10.7907 26.7048 10.6407 26.7048C7.09703 26.7048 4.14368 24.9028 2.07478 21.4702C0.520178 18.8909 0.0195117 16.2921 3.05176e-05 16.1831L2.48778 15.7155C2.49362 15.7369 2.94169 18.0299 4.27615 20.2196C5.94764 22.9547 8.20356 24.2833 10.9855 24.1645C13.2706 24.0671 15.2499 23.1203 16.8727 21.3495C17.6702 20.4784 18.2844 19.5196 18.7489 18.6287C19.0934 17.9682 18.5867 17.2156 17.8417 17.2156H9.83218C9.28671 17.1805 8.85423 16.7266 8.85423 16.1714V13.4167C8.18213 13.0505 7.68341 12.4095 7.50613 11.6459C6.76195 10.7361 4.69889 10.4322 2.8813 10.4595C2.25985 10.4653 1.68515 10.2354 1.24488 9.80491C0.806552 9.37243 0.564985 8.79578 0.564985 8.18018V4.36187C0.564985 3.13845 1.52151 2.15465 2.74103 2.11958C4.73201 2.06503 6.47168 1.82152 7.91524 1.39683C9.12112 1.04422 9.86141 0.639012 10.2705 0.360431C11.0946 -0.200627 12.1991 -0.0993252 12.8927 0.603946C13.1265 0.83772 14.6012 2.01828 20.804 2.12543C22.0177 2.14686 23.0054 3.15209 23.0054 4.36576V9.2458H20.4728Z" fill="#009444"/>
<path d="M11.8598 17.2156V17.2195H9.90198C9.8786 17.2195 9.85523 17.2195 9.83185 17.2156H11.8598Z" fill="#009444"/>
</g>
<defs>
<clipPath id="clip0_52_853">
<rect width="23.0053" height="26.7048" fill="white"/>
</clipPath>
</defs>
</svg>